<?xml version="1.0" encoding="utf-8"?>
<!-- Generator: Adobe Illustrator 24.3.0, SVG Export Plug-In . SVG Version: 6.00 Build 0)  -->
<svg version="1.1" id="Layer_1" xmlns="http://www.w3.org/2000/svg" xmlns:xlink="http://www.w3.org/1999/xlink" x="0px" y="0px"
	 viewBox="0 0 100 100" enable-background="new 0 0 100 100" xml:space="preserve">
<g>
	<g>
		<path fill="#39485D" d="M17.742,59.225c0-1.28,17.84-27.292,17.84-27.292L57.56,59.225H17.742z"/>
		<path fill="#C8C9CF" d="M39.721,59.889c0-1.28,14.716-36.324,14.716-36.324l25.102,36.324H39.721z"/>
		<path fill="#39485D" d="M4.991,75.978c0,0,13.692-30.996,14.098-33.228c0.407-2.23,8.47,9.754,8.47,9.754l8.149-3.955
			l11.945,10.707l20.904-22.751l7.21,9.293l8.575-5.655l10.666,35.835c0,0-15.714-6.024-25.1-2.007
			c-9.385,4.015-26.114,2.696-35.836-0.891C19.568,67.725,4.991,75.978,4.991,75.978z"/>
		<path fill="#323E50" d="M46.816,58.447l-11.045-9.899l-8.149,3.955c0,0-8.063-11.984-8.469-9.754
			C18.747,44.981,5.055,75.978,5.055,75.978s14.576-8.252,29.081-2.899c3.531,1.303,7.988,2.301,12.68,2.857V58.447z"/>
	</g>
	<path fill="#F4F7FA" d="M54.437,23.566l-5.002,11.989c0,0,1.678,0.512,3.261-1.731c1.583-2.243,1.583-2.243,1.583-2.243
		s-0.264,5.277,0.923,3.429c1.187-1.846,0.923-3.077,0.923-3.077s0.923,2.945,2.111,1.891c1.187-1.056-0.676-2.902-0.676-2.902
		l3.096,1.643L54.437,23.566z"/>
</g>
</svg>
